<svg width="12" height="10" viewBox="0 0 12 10" fill="none" xmlns="http://www.w3.org/2000/svg">
<path fill-rule="evenodd" clip-rule="evenodd" d="M5.84906 9.91876C4.47815 9.17661 3.20281 8.30314 2.04587 7.31398C1.23249 6.60164 0.613267 5.73321 0.23564 4.77522C-0.443909 2.91684 0.34985 0.789348 2.57123 0.159733C3.7387 -0.17087 5.01376 0.0180847 5.99753 0.667487C6.98168 0.0188756 8.25629 -0.170012 9.42383 0.159733C11.6452 0.789348 12.4447 2.91684 11.7651 4.77522C11.3875 5.73321 10.7683 6.60164 9.95491 7.31398C8.79797 8.30314 7.52263 9.17661 6.15171 9.91876L6.00324 10L5.84906 9.91876Z" fill="white"/>
<path fill-rule="evenodd" clip-rule="evenodd" d="M8.36168 2.25168C9.0345 2.44073 9.51256 2.97207 9.5723 3.59723Z" fill="white"/>
</svg>
