<svg width="10" height="14" viewBox="0 0 12 16" fill="none" xmlns="http://www.w3.org/2000/svg">
<path d="M4.56173 14.1962C4.85542 14.6349 5.2867 14.9188 5.76013 14.9851C6.23356 15.0514 6.7101 14.8946 7.08427 14.5495C7.19936 14.4474 7.30291 14.3287 7.39246 14.1962M1.00049 9.25098V9.09769C1.01938 8.64417 1.14153 8.20474 1.35433 7.82472C1.70853 7.36822 1.951 6.80881 2.0563 6.20518C2.0563 5.73865 2.0563 5.26545 2.09054 4.79892C2.26747 2.55289 4.13369 1 5.97709 1H6.02275C7.86615 1 9.73238 2.55289 9.915 4.79892C9.94925 5.26545 9.915 5.73865 9.94354 6.20518C10.0503 6.81021 10.2925 7.37136 10.6455 7.83139C10.8599 8.20804 10.9822 8.64586 10.9994 9.09769V9.24432C11.0121 9.85363 10.8357 10.4478 10.5028 10.9172C10.0629 11.466 9.46595 11.8075 8.82494 11.8769C6.94529 12.1168 5.04884 12.1168 3.16919 11.8769C2.52891 11.8045 1.9328 11.4635 1.4913 10.9172C1.16353 10.4474 0.989553 9.85681 1.00049 9.25098Z" stroke="#0C0C0D" stroke-linecap="round" stroke-linejoin="round"/>
</svg>
