<svg width="10" height="14" viewBox="0 0 12 16" fill="none" xmlns="http://www.w3.org/2000/svg">
<path d="M3.62847 5.76667H8.33609M5.75487 12.5467L1.92735 14.9133C1.62175 15.0926 1.24526 14.9657 1.07679 14.6267C1.02805 14.5216 1.00175 14.4052 1 14.2867V3.8C1 1.8 2.21087 1 3.95334 1H8.04666C9.73597 1 11 1.74667 11 3.66667V14.2867C11 14.4759 10.9334 14.6573 10.8149 14.7911C10.6964 14.9248 10.5356 15 10.368 15C10.2611 14.9981 10.156 14.9684 10.0608 14.9133L6.20969 12.5467C6.06778 12.4601 5.89679 12.4601 5.75487 12.5467Z" stroke="#0C0C0D" stroke-linecap="round" stroke-linejoin="round"/>
</svg>
